<svg width="120" height="40" viewBox="0 0 120 40" fill="none" xmlns="http://www.w3.org/2000/svg">
  <rect width="40" height="40" rx="8" fill="#2563EB"/>
  <path d="M10 20C10 15.5817 13.5817 12 18 12C22.4183 12 26 15.5817 26 20C26 24.4183 22.4183 28 18 28" stroke="white" stroke-width="2" stroke-linecap="round"/>
  <path d="M18 28C15.7909 28 14 26.2091 14 24C14 21.7909 15.7909 20 18 20C20.2091 20 22 21.7909 22 24C22 26.2091 20.2091 28 18 28Z" fill="white"/>
  <path d="M18 16V12" stroke="white" stroke-width="2" stroke-linecap="round"/>
  <path d="M22 16L26 16" stroke="white" stroke-width="2" stroke-linecap="round"/>
  <path d="M14 16L10 16" stroke="white" stroke-width="2" stroke-linecap="round"/>
  <text x="45" y="25" font-family="Arial" font-size="20" font-weight="bold" fill="#2563EB">HireSync</text>
</svg> 